<?xml version="1.0" encoding="UTF-8"?> <svg xmlns="http://www.w3.org/2000/svg" width="107" height="24" viewBox="0 0 107 24" fill="none"><path d="M22.7621 4.72605H19.6713V9.47853H22.7359V17.3202C22.7359 19.4852 23.3383 21.1221 24.5694 22.2575C25.8005 23.3928 27.4245 23.9472 29.4938 23.9472C31.956 23.9472 33.9466 23.1288 35.492 21.4917L33.2918 17.6898C32.2441 18.5347 31.144 18.9571 30.0177 18.9571C29.3104 18.9571 28.8128 18.7195 28.5246 18.2178C28.2365 17.7162 28.0794 16.8977 28.0794 15.736V9.47853H33.9204V4.72605H28.0794V0H22.7621V4.72605Z" fill="#002499"></path><path fill-rule="evenodd" clip-rule="evenodd" d="M9.61303 4.06599C5.89356 4.06599 3.09084 5.04287 1.20492 7.02307L3.74567 10.9307C4.74101 10.2178 5.6054 9.74256 6.36501 9.47853C7.12461 9.21451 8.01518 9.08249 9.03672 9.08249C10.0845 9.08249 10.8703 9.32009 11.3941 9.74256C11.918 10.165 12.1537 10.8779 12.1276 11.8283C11.237 11.5115 10.0845 11.3531 8.67004 11.3531C6.20786 11.3531 4.13856 11.8812 2.48837 12.9373C0.838188 13.9934 0 15.5776 0 17.6634C0 19.5643 0.628656 21.0957 1.91213 22.231C3.1956 23.3664 4.89822 23.9472 6.99369 23.9472C8.09381 23.9472 9.11534 23.7624 10.0583 23.3664C11.0013 22.9703 11.6823 22.5214 12.1276 21.9934V23.736H17.4448V12.066C17.4448 9.50496 16.7376 7.55113 15.3756 6.15177C14.0135 4.75248 12.0752 4.06599 9.61303 4.06599ZM12.1276 17.1353C11.8132 17.7426 11.2894 18.2706 10.5298 18.693C9.77019 19.1155 8.95815 19.3267 8.06758 19.3267C7.25558 19.3267 6.62696 19.1683 6.18167 18.8779C5.73637 18.5875 5.50061 18.1914 5.50061 17.6634C5.50061 16.396 6.75795 15.7624 9.22012 15.7624C10.2941 15.7624 11.2632 15.9208 12.1276 16.2376V17.1353Z" fill="#002499"></path><path d="M36.1469 4.46203H41.4642V5.22774C41.6737 4.93729 42.0928 4.67326 42.6691 4.43566C43.2453 4.198 43.8216 4.09241 44.424 4.09241C45.367 4.09241 46.1266 4.22443 46.6767 4.48845C47.2267 4.75248 47.7244 5.17495 48.1697 5.7558L45.4455 10.0594C45.1836 9.53139 44.6074 9.29373 43.7168 9.29373C42.5905 9.29373 41.8309 9.95379 41.4642 11.3004V23.736H36.1469V4.46203Z" fill="#002499"></path><path fill-rule="evenodd" clip-rule="evenodd" d="M59.1447 4.06599C55.4252 4.06599 52.6226 5.04287 50.7366 7.02307L53.2774 10.9307C54.2727 10.2178 55.1371 9.74256 55.8967 9.47853C56.6563 9.21451 57.5469 9.08249 58.5684 9.08249C59.6162 9.08249 60.402 9.32009 60.9259 9.74256C61.4497 10.165 61.6855 10.8779 61.6593 11.8283C60.7687 11.5115 59.6162 11.3531 58.2018 11.3531C55.7396 11.3531 53.6703 11.8812 52.0201 12.9373C50.3699 13.9934 49.5317 15.5776 49.5317 17.6634C49.5317 19.5643 50.1604 21.0957 51.4439 22.231C52.7273 23.3664 54.4299 23.9472 56.5253 23.9472C57.6255 23.9472 58.647 23.7624 59.59 23.3664C60.5329 22.9703 61.214 22.5214 61.6593 21.9934V23.736H66.9766V12.066C66.9766 9.50496 66.2693 7.55113 64.9072 6.15177C63.5452 4.75248 61.6069 4.06599 59.1447 4.06599ZM61.6331 17.1353C61.3187 17.7426 60.7949 18.2706 60.0353 18.693C59.2757 19.1155 58.4637 19.3267 57.5731 19.3267C56.7611 19.3267 56.1325 19.1683 55.6872 18.8779C55.2419 18.5875 55.0061 18.1914 55.0061 17.6634C55.0061 16.396 56.2635 15.7624 58.7256 15.7624C59.7996 15.7624 60.7687 15.9208 61.6331 16.2376V17.1353Z" fill="#002499"></path><path d="M72.2676 4.72605V0H77.5849V4.72605H83.4259V9.47853H77.5849V15.736C77.5849 16.8977 77.742 17.7162 78.0301 18.2178C78.3183 18.7195 78.8159 18.9571 79.5232 18.9571C80.6495 18.9571 81.7496 18.5347 82.7973 17.6898L84.9976 21.4917C83.4521 23.1288 81.4615 23.9472 78.9993 23.9472C76.93 23.9472 75.306 23.3928 74.0749 22.2575C72.8438 21.1221 72.2414 19.4852 72.2414 17.3202V9.47853H69.1768V4.72605H72.2676Z" fill="#002499"></path><path d="M105.559 8.42243C106.476 9.92737 106.948 11.67 106.974 13.6502L106.974 13.6747C106.974 13.7193 106.978 13.7639 107 13.8085C107 16.7657 106.005 19.1947 104.014 21.1221C102.023 23.0495 99.4825 24 96.3655 24C93.3271 24 90.8125 23.0495 88.7956 21.1221C86.7787 19.1947 85.7834 16.7657 85.7834 13.8085V13.6502C85.8095 11.67 86.281 9.92737 87.1716 8.42243L91.965 11.2211C91.6245 11.9076 91.4411 12.7261 91.4149 13.6502V13.8085C91.4149 15.2871 91.8603 16.5017 92.777 17.4521C93.6938 18.429 94.8725 18.9043 96.3393 18.9043C97.8585 18.9043 99.0635 18.429 99.9802 17.5313C100.897 16.6073 101.342 15.3663 101.342 13.8085V13.6502C101.316 12.7261 101.133 11.9076 100.766 11.2211L105.559 8.42243Z" fill="#002499"></path><path d="M94.0867 9.50496H92.9604C92.3317 9.50496 91.8078 8.97691 91.8078 8.34327V5.91417C91.8078 5.28053 92.3317 4.75248 92.9604 4.75248H94.0867C94.7154 4.75248 95.2392 5.28053 95.2392 5.91417V8.34327C95.2392 8.97691 94.7154 9.50496 94.0867 9.50496Z" fill="#002499"></path><path d="M98.6443 9.50496H99.7707C100.399 9.50496 100.923 8.97691 100.923 8.34327V5.91417C100.923 5.28053 100.399 4.75248 99.7707 4.75248H98.6443C98.0157 4.75248 97.4919 5.28053 97.4919 5.91417V8.34327C97.4919 8.97691 98.0157 9.50496 98.6443 9.50496Z" fill="#002499"></path></svg> 