<?xml version="1.0" encoding="UTF-8"?> <svg xmlns="http://www.w3.org/2000/svg" viewBox="0 0 379.14 98.78"><defs><style>.cls-1{fill:#2d3277;}.cls-2{fill:#009ee3;}.cls-3{fill:#fff;}</style></defs><title>Recurso 11</title><g id="Capa_2" data-name="Capa 2"><g id="Capa_1-2" data-name="Capa 1"><path class="cls-1" d="M138.84,45.4c0-25-31.08-45.4-69.42-45.4S0,20.39,0,45.4c0,.65,0,2.43,0,2.66,0,26.54,27.16,48,69.41,48,42.51,0,69.43-21.49,69.43-48Z"></path><ellipse class="cls-2" cx="69.44" cy="45.38" rx="66.75" ry="42.7"></ellipse><path class="cls-3" d="M47.27,31.91c0,.07-.7.76-.27,1.31,1.05,1.35,4.31,2.12,7.6,1.38,2-.44,4.47-2.44,6.9-4.37,2.64-2.09,5.25-4.19,7.88-5a9,9,0,0,1,5.75-.15,17.67,17.67,0,0,1,5.24,3.06c4.57,3.43,22.93,19.46,26.1,22.23a158.39,158.39,0,0,1,29.35-9.45c-1.34-8.23-6.35-15.76-13.94-21.92-10.58,4.44-23.51,6.76-36.15.59-.06,0-6.91-3.26-13.66-3.11C62,16.7,57.7,21,53.1,25.63Z"></path><path class="cls-3" d="M105.72,52.09c-.21-.19-21.59-18.9-26.44-22.54-2.8-2.1-4.36-2.64-6-2.85a8.18,8.18,0,0,0-2.85.27c-2.25.61-5.2,2.58-7.81,4.66S57.36,35.82,55,36.35a12.34,12.34,0,0,1-8.41-1.26,3.72,3.72,0,0,1-1.4-1.53,2.59,2.59,0,0,1,.71-2.79l5.9-6.38c.69-.68,1.38-1.37,2.08-2a38.27,38.27,0,0,0-5.38,1.21,23.44,23.44,0,0,1-6.27,1.17,59.62,59.62,0,0,1-6.4-1,95.66,95.66,0,0,1-17-6.15c-8.39,6.24-14,14-15.62,22.65,1.21.32,3.15.9,4,1.08,19,4.22,24.89,8.57,26,9.47a6.28,6.28,0,0,1,9.85.58,7.17,7.17,0,0,1,4.52-1.59,8.45,8.45,0,0,1,2.71.48A6.23,6.23,0,0,1,54,53.69a6.33,6.33,0,0,1,2.64-.56,8,8,0,0,1,3.16.7c3.5,1.5,4,4.94,3.73,7.53a6.45,6.45,0,0,1,.75,0,7.51,7.51,0,0,1,6.62,11.08c1.13.63,4,2.07,6.53,1.75,2-.25,2.79-.94,3.06-1.33s.39-.58.2-.8l-5.36-5.95s-.88-.83-.59-1.16.85.14,1.23.47c2.73,2.28,6.05,5.71,6.05,5.71s.28.47,1.51.69a5.57,5.57,0,0,0,4.23-1,6.35,6.35,0,0,0,.93-1l-.06,0a2.85,2.85,0,0,0-.15-3.53l-6.25-7s-.89-.83-.59-1.16.85.15,1.24.47c2,1.66,4.78,4.46,7.46,7.09.52.38,2.88,1.84,6-.21a4.3,4.3,0,0,0,2.22-3.92A4.47,4.47,0,0,0,97.27,59l-8.54-8.59s-.9-.77-.58-1.16.85.14,1.23.47c2.72,2.28,10.09,9,10.09,9a5.18,5.18,0,0,0,5.79-.12,3.87,3.87,0,0,0,1.9-3.06A4.52,4.52,0,0,0,105.72,52.09Z"></path><path class="cls-3" d="M64.3,63c-1.32,0-2.77.77-3,.66s.08-.6.21-.91,1.87-5.55-2.38-7.37c-3.25-1.4-5.24.17-5.92.88-.18.19-.26.17-.28-.07a4.69,4.69,0,0,0-3.3-4.36,6.43,6.43,0,0,0-7.25,2.58A4.64,4.64,0,1,0,41,58.34s0,.07,0,.16a6.13,6.13,0,0,0,3.83,7,4.57,4.57,0,0,0,4.49-.69c.37-.26.43-.15.38.2-.16,1.08,0,3.38,3.27,4.69a4.15,4.15,0,0,0,4.87-.9c.42-.38.53-.32.55.27A5.86,5.86,0,1,0,64.3,63Z"></path><path class="cls-1" d="M106.55,49.85c-6.58-5.75-21.8-19-25.93-22.07a18.11,18.11,0,0,0-5.37-3.13,8.89,8.89,0,0,0-2.64-.41,11.11,11.11,0,0,0-3.35.56c-2.66.84-5.32,3-7.88,5l-.13.1c-2.39,1.9-4.86,3.87-6.73,4.29a11.39,11.39,0,0,1-2.49.28c-2.09,0-4-.61-4.68-1.51-.12-.15,0-.39.23-.74l0,0,5.79-6.24c4.54-4.54,8.82-8.82,18.69-9h.49a35,35,0,0,1,13,3.07,40.16,40.16,0,0,0,17.67,4.24,46.15,46.15,0,0,0,19.4-4.65c-.75-.63-1.54-1.25-2.35-1.86a42.71,42.71,0,0,1-17,3.87,37.61,37.61,0,0,1-16.54-4,37.23,37.23,0,0,0-14.12-3.33H72c-8.29.19-13,3.14-16.09,5.71a31.86,31.86,0,0,0-8,1.46,21.73,21.73,0,0,1-5.66,1.08c-.73,0-2-.07-2.15-.07-2-.06-12.23-2.56-20.35-5.64-.83.59-1.63,1.19-2.4,1.81,8.48,3.48,18.8,6.17,22.06,6.38.91.06,1.87.16,2.84.16A24.12,24.12,0,0,0,48.63,24c1.23-.35,2.58-.72,4-1L51.5,24.1l-5.89,6.37a3,3,0,0,0-.81,3.25,4.13,4.13,0,0,0,1.55,1.72A12.26,12.26,0,0,0,52.6,37a11.35,11.35,0,0,0,2.49-.26c2.47-.55,5.05-2.62,7.8-4.79,2.18-1.74,5.29-3.94,7.66-4.59a8.74,8.74,0,0,1,2.13-.29,4.3,4.3,0,0,1,.55,0c1.57.2,3.09.73,5.8,2.77,4.83,3.63,26.21,22.33,26.42,22.52a4.11,4.11,0,0,1,1.28,3.14A3.42,3.42,0,0,1,105,58.28a5.2,5.2,0,0,1-2.81.87,4.61,4.61,0,0,1-2.48-.72c-.08-.06-7.4-6.78-10.1-9a2.26,2.26,0,0,0-1.27-.68.7.7,0,0,0-.56.26c-.42.52.05,1.25.61,1.72L97,59.31a4.05,4.05,0,0,1,1.18,2.32,3.91,3.91,0,0,1-2,3.55,5.52,5.52,0,0,1-3,1,4.41,4.41,0,0,1-2.44-.74l-1.23-1.21c-2.24-2.21-4.56-4.49-6.25-5.9a2.28,2.28,0,0,0-1.28-.66.73.73,0,0,0-.54.23c-.19.21-.33.6.15,1.24a4.25,4.25,0,0,0,.43.48l6.24,7a2.39,2.39,0,0,1,.14,3l-.22.28a6.44,6.44,0,0,1-.58.56,5,5,0,0,1-3.05,1,4.8,4.8,0,0,1-.84-.07,2.12,2.12,0,0,1-1.23-.52l-.08-.08c-.34-.35-3.49-3.57-6.09-5.74A2.15,2.15,0,0,0,75,64.37a.74.74,0,0,0-.56.25c-.52.56.26,1.41.59,1.72l5.33,5.87a1.23,1.23,0,0,1-.2.36c-.19.26-.84.91-2.77,1.15a5.33,5.33,0,0,1-.71,0,12.17,12.17,0,0,1-5.21-1.55,7.94,7.94,0,0,0-7.18-11.33H64c.14-2-.14-5.79-4-7.46a8.36,8.36,0,0,0-3.32-.73,6.75,6.75,0,0,0-2.43.44,6.68,6.68,0,0,0-3.89-3.3,8.72,8.72,0,0,0-2.85-.5,7.51,7.51,0,0,0-4.44,1.42,6.69,6.69,0,0,0-10-.56c-1.66-1.27-8.23-5.44-25.83-9.44-.85-.19-2.81-.75-4-1.1a28.38,28.38,0,0,0-.45,2.89l3.88.92c18,4,23.92,8.15,24.92,8.93a6.75,6.75,0,0,0,7.45,9.22,7.85,7.85,0,0,0,5.08,5.87,6.7,6.7,0,0,0,2.4.46,6.16,6.16,0,0,0,1.53-.19,7.81,7.81,0,0,0,6.83,4.46A5.94,5.94,0,0,0,57,71.85a7.93,7.93,0,0,0,13,2.52,15,15,0,0,0,6.73,2,8.59,8.59,0,0,0,1-.06c2.72-.34,4-1.41,4.56-2.23a3.3,3.3,0,0,0,.28-.46,7.71,7.71,0,0,0,2.15.34,7.26,7.26,0,0,0,4.35-1.55,6,6,0,0,0,2.56-3.73v-.05a7.19,7.19,0,0,0,1.45.15,8.08,8.08,0,0,0,4.47-1.42,6.44,6.44,0,0,0,3.2-5.74,7.19,7.19,0,0,0,1.47.15,7.72,7.72,0,0,0,4.18-1.29,6.11,6.11,0,0,0,2.91-4.73,6.38,6.38,0,0,0-.92-3.82,172.88,172.88,0,0,1,27.73-8.68,28.41,28.41,0,0,0-.39-2.88A159,159,0,0,0,106.55,49.85ZM64.3,74.27a5.4,5.4,0,0,1-5.43-5.19c0-.25,0-.91-.59-.91a1,1,0,0,0-.66.35A3.82,3.82,0,0,1,55,69.73a4.67,4.67,0,0,1-1.76-.38c-3.1-1.25-3.14-3.38-3-4.24a.78.78,0,0,0-.11-.65l-.19-.17h-.19a1,1,0,0,0-.54.22,4.53,4.53,0,0,1-2.63.94A4.08,4.08,0,0,1,45,65.15a5.69,5.69,0,0,1-3.56-6.6.56.56,0,0,0-.18-.54L41,57.78l-.27.26A4.24,4.24,0,1,1,42,54.45l.15,1.14.62-1a5.88,5.88,0,0,1,6.77-2.41,4.28,4.28,0,0,1,3,4c0,.55.44.58.51.58a.69.69,0,0,0,.49-.26,4.28,4.28,0,0,1,3.12-1.32,6,6,0,0,1,2.34.53c4,1.71,2.18,6.78,2.16,6.83-.34.84-.36,1.21,0,1.42l.16.08h.12a2.82,2.82,0,0,0,.77-.2,6.81,6.81,0,0,1,2.13-.47h0a5.44,5.44,0,1,1,0,10.88Z"></path><path class="cls-1" d="M375.38,16.47q-3.76-4.71-11.41-4.71t-11.41,4.71A17.28,17.28,0,0,0,348.8,27.6a17.2,17.2,0,0,0,3.76,11.18q3.76,4.63,11.41,4.64t11.41-4.64a17.2,17.2,0,0,0,3.76-11.18A17.28,17.28,0,0,0,375.38,16.47Zm-6.21,18a6.87,6.87,0,0,1-10.47,0q-1.84-2.42-1.84-6.88t1.84-6.87a6.9,6.9,0,0,1,10.47,0Q371,23.14,371,27.6T369.17,34.48Z"></path><path class="cls-1" d="M311.35,13.85a19,19,0,0,0-8.72-1.94q-7.54,0-10.65,3.93a11.44,11.44,0,0,0-2.2,6.42h7.52a5.63,5.63,0,0,1,1.11-2.73q1.16-1.37,4-1.37a8.09,8.09,0,0,1,3.79.7,2.62,2.62,0,0,1,1.29,2.52,2.34,2.34,0,0,1-1.68,2.21,12.3,12.3,0,0,1-3.11.68l-2.66.33a19,19,0,0,0-6.88,1.91q-4.27,2.46-4.27,7.95A8.2,8.2,0,0,0,291.48,41a10.53,10.53,0,0,0,6.72,2.31c17,.76,16.8-9,17-11V21.17Q315.16,15.79,311.35,13.85Zm-3.95,17q-.08,3.91-2.23,5.38a8.13,8.13,0,0,1-4.7,1.48,4.28,4.28,0,0,1-2.74-.89,3.46,3.46,0,0,1-1.12-2.88,3.56,3.56,0,0,1,1.84-3.3A11.62,11.62,0,0,1,302,29.54l1.78-.33a13,13,0,0,0,2.09-.54,7.84,7.84,0,0,0,1.51-.75Z"></path><path class="cls-1" d="M272.59,18.57a5.06,5.06,0,0,1,4.29,1.8,6.67,6.67,0,0,1,1.18,3h8.38Q285.76,17,282,14.51A17.1,17.1,0,0,0,272.36,12q-6.93,0-10.86,4.25t-3.94,11.89q0,6.76,3.56,11t11.12,4.25q7.56,0,11.41-5.09a12.57,12.57,0,0,0,2.7-6.7H278a7.05,7.05,0,0,1-1.47,3.82c-.81,1-2.16,1.47-4.09,1.47a5.46,5.46,0,0,1-5.53-3.71,14.18,14.18,0,0,1-.81-5.24,15.49,15.49,0,0,1,.81-5.49A5.63,5.63,0,0,1,272.59,18.57Z"></path><path class="cls-1" d="M255.31,12c-17.22,0-16.2,15.25-16.2,15.25V42.75h7.82V28.22a12,12,0,0,1,.9-5.29q1.61-3,6.29-3.05l.93,0c.38,0,.81.05,1.31.11v-8l-.67,0Z"></path><path class="cls-1" d="M226.6,34.65a5.7,5.7,0,0,1-1.07,1.18A6.67,6.67,0,0,1,221.17,37,7.41,7.41,0,0,1,217,36c-1.95-1.2-3-3.23-3.16-6.2h21.63a39.29,39.29,0,0,0-.26-5.89,14.63,14.63,0,0,0-2.36-6.14,12.13,12.13,0,0,0-5.13-4.39,17,17,0,0,0-7-1.39,14.32,14.32,0,0,0-10.62,4.11Q206,20.24,206,28q0,8.24,4.54,11.89A16.19,16.19,0,0,0,221,43.49q7.18,0,11.17-4.33a10.52,10.52,0,0,0,2.71-4.51ZM216.1,20.1a6.17,6.17,0,0,1,4.63-1.7,6.8,6.8,0,0,1,4.61,1.6,6.47,6.47,0,0,1,2.06,4.69H214A8.06,8.06,0,0,1,216.1,20.1Z"></path><path class="cls-1" d="M202.88,42.74h-7.14v-18c0-1.64-.54-5.55-5.25-5.55a5.26,5.26,0,0,0-5.41,5.55v18h-7.15v-18c0-1.64-.49-5.55-5.19-5.55a5.23,5.23,0,0,0-5.41,5.55v18h-7.14V24.94c0-7.42,4.92-13,12.56-13A11,11,0,0,1,181.62,16a11.38,11.38,0,0,1,8.87-4.14c7.79,0,12.39,5.38,12.39,13Z"></path><path class="cls-1" d="M346.47,2.62s-7.87-.84-7.87,5.48v8.37a9.39,9.39,0,0,0-3.4-3.28A9.57,9.57,0,0,0,330.4,12,11.39,11.39,0,0,0,321,16.37c-2.34,2.91-3.5,7.1-3.5,12.16a16.17,16.17,0,0,0,3.55,10.8c2.37,2.8,7,4,11.14,4,14.39,0,14.22-12.34,14.22-12.34ZM337.1,34.55a5.73,5.73,0,0,1-5,2.45,5.48,5.48,0,0,1-4.92-2.47,12.59,12.59,0,0,1-1.62-6.78,11.92,11.92,0,0,1,1.59-6.39,5.45,5.45,0,0,1,5-2.58,5.93,5.93,0,0,1,3.92,1.42c1.83,1.56,2.75,4.37,2.75,8A10.83,10.83,0,0,1,337.1,34.55Z"></path><path class="cls-2" d="M217.26,92.35a3.67,3.67,0,0,1-1.15,2.72,3.77,3.77,0,0,1-2.76,1.13h-3.9V69c0-5.28,1.78-8.59,4.71-10.82,1.94-1.48,4.82-2.89,10.22-2.89,3.65,0,7.92,1.42,10.23,4.23,2.59,3.16,3.67,6.69,3.67,11.3,0,4.76-1.15,8.61-3.45,11.56A10.82,10.82,0,0,1,226,86.73a11.88,11.88,0,0,1-5.05-1,8.59,8.59,0,0,1-3.68-3.52Zm13.1-21.15q0-4.42-1.73-6.8A5.74,5.74,0,0,0,223.69,62a5.65,5.65,0,0,0-4.83,2.38c-1.07,1.44-1.6,3.71-1.6,6.8,0,2.88.57,5,1.72,6.46A5.72,5.72,0,0,0,223.92,80a5.5,5.5,0,0,0,4.71-2.38,10.78,10.78,0,0,0,1.73-6.46"></path><path class="cls-2" d="M290.06,84.23V82.31a8.64,8.64,0,0,1-5.47,4,11.18,11.18,0,0,1-6.82-.57,12.68,12.68,0,0,1-5.82-5Q269.52,77,269.52,71q0-7,3.21-11.38c2.15-2.91,5.59-4.23,10.33-4.36s7.38.93,10,2.95c2.91,2.21,4.62,5.59,4.62,10.87V85c0,5.08-3.53,14.51-14.67,13.71-6.9-.5-10.73-3.33-12.86-9.74h8.24a6.31,6.31,0,0,0,6.48,2.88,6.17,6.17,0,0,0,3.39-2.21,9.3,9.3,0,0,0,1.75-5.44m-12.87-13q0,7.81,4.52,8.67t6.66-2.1a8.44,8.44,0,0,0,1.46-3.9,16.55,16.55,0,0,0,.06-5.27A10.48,10.48,0,0,0,288,64a5,5,0,0,0-4.29-2c-2.56,0-4.29.95-5.19,2.83a14.74,14.74,0,0,0-1.36,6.46"></path><path class="cls-2" d="M262.84,57.39a19.08,19.08,0,0,0-8.72-1.94q-7.55,0-10.65,3.93a11.44,11.44,0,0,0-2.2,6.42h7.52a5.58,5.58,0,0,1,1.11-2.73q1.16-1.37,4-1.37a8.1,8.1,0,0,1,3.79.7,2.62,2.62,0,0,1,1.29,2.53,2.34,2.34,0,0,1-1.68,2.21,12.34,12.34,0,0,1-3.11.68l-2.66.33a19,19,0,0,0-6.88,1.92q-4.27,2.46-4.27,7.95A8.19,8.19,0,0,0,243,84.56a10.52,10.52,0,0,0,6.72,2.31c17,.76,16.8-9,17-11V64.71q0-5.38-3.81-7.32m-4,17c0,2.61-.8,4.4-2.23,5.38a8.13,8.13,0,0,1-4.7,1.47,4.28,4.28,0,0,1-2.73-.89,3.46,3.46,0,0,1-1.12-2.88,3.56,3.56,0,0,1,1.84-3.3,11.59,11.59,0,0,1,3.58-1.06l1.77-.33a12.6,12.6,0,0,0,2.08-.54,7.74,7.74,0,0,0,1.51-.75Z"></path><path class="cls-2" d="M327.29,59.85q-3.76-4.71-11.42-4.71t-11.41,4.71A17.27,17.27,0,0,0,300.71,71a17.19,17.19,0,0,0,3.76,11.17q3.76,4.63,11.41,4.64t11.42-4.64A17.21,17.21,0,0,0,331,71a17.29,17.29,0,0,0-3.75-11.13m-6.21,18a6.87,6.87,0,0,1-10.47,0q-1.85-2.42-1.84-6.88t1.84-6.86a6.89,6.89,0,0,1,10.47,0q1.83,2.4,1.82,6.86t-1.82,6.88"></path></g></g></svg> 